# xmcd
#
# Track frame offsets: 
#        187
#        14247
#        31052
#        47640
#        67522
#        86592
#        110790
#        126645
#        142730
#        158637
#        176000
#        195087
#        209057
#        222757
#        239117
#
# Disc length: 3410 seconds
#
# Revision: 0
# Processed by: cddbd v1.5.2PL0 Copyright (c) Steve Scherf et al.
# Submitted via: ExactAudioCopy v1.0b3
#
DISCID=d50d500f
DTITLE=The Stylistics - The Stylistics Disc 4 Love Is The Answer (Pop 
DTITLE=Hits) VICG-58201-5
DYEAR=1900
DGENRE=Blues
TTITLE0=Love Is The Answer
TTITLE1=Sixteen Bars
TTITLE2=Because I Love You Girl
TTITLE3=The Miracle
TTITLE4=Star On A TV Show
TTITLE5=Heavy Fallin' Out
TTITLE6=Go Now
TTITLE7=Hey Girl... Come And Get It
TTITLE8=Funky Weekend
TTITLE9=Jenny
TTITLE10=You Are Beautiful
TTITLE11=To Save My Rock'n' Roll Soul
TTITLE12=Na Na Is The Saddest Word
TTITLE13=Lucky Me
TTITLE14=Love Is The Answer (Instrumental)
EXTD=
EXTT0=
EXTT1=
EXTT2=
EXTT3=
EXTT4=
EXTT5=
EXTT6=
EXTT7=
EXTT8=
EXTT9=
EXTT10=
EXTT11=
EXTT12=
EXTT13=
EXTT14=
PLAYORDER=
